TITLE ""
FILE "2Q_t_0889-0900.mp3" MP3
  TRACK 01 AUDIO
    TITLE "2Q_t_0889-0900_01"
    INDEX 01 00:00:00
  TRACK 02 AUDIO
    TITLE "2Q_t_0889-0900_02"
    INDEX 01 00:00:12
  TRACK 03 AUDIO
    TITLE "2Q_t_0889-0900_03"
    INDEX 01 00:01:31
  TRACK 04 AUDIO
    TITLE "2Q_t_0889-0900_04"
    INDEX 01 00:02:11
  TRACK 05 AUDIO
    TITLE "2Q_t_0889-0900_05"
    INDEX 01 00:04:20
  TRACK 06 AUDIO
    TITLE "2Q_t_0889-0900_06"
    INDEX 01 00:04:65
  TRACK 07 AUDIO
    TITLE "2Q_t_0889-0900_07"
    INDEX 01 00:06:01
  TRACK 08 AUDIO
    TITLE "2Q_t_0889-0900_08"
    INDEX 01 00:06:48
  TRACK 09 AUDIO
    TITLE "2Q_t_0889-0900_09"
    INDEX 01 00:08:25
  TRACK 10 AUDIO
    TITLE "2Q_t_0889-0900_10"
    INDEX 01 00:08:73
  TRACK 11 AUDIO
    TITLE "2Q_t_0889-0900_11"
    INDEX 01 00:10:22
  TRACK 12 AUDIO
    TITLE "2Q_t_0889-0900_12"
    INDEX 01 00:10:67
  TRACK 13 AUDIO
    TITLE "2Q_t_0889-0900_13"
    INDEX 01 00:12:15
  TRACK 14 AUDIO
    TITLE "2Q_t_0889-0900_14"
    INDEX 01 00:12:62
  TRACK 15 AUDIO
    TITLE "2Q_t_0889-0900_15"
    INDEX 01 00:13:36
  TRACK 16 AUDIO
    TITLE "2Q_t_0889-0900_16"
    INDEX 01 00:14:18
  TRACK 17 AUDIO
    TITLE "2Q_t_0889-0900_17"
    INDEX 01 00:17:15
  TRACK 18 AUDIO
    TITLE "2Q_t_0889-0900_18"
    INDEX 01 00:17:58
  TRACK 19 AUDIO
    TITLE "2Q_t_0889-0900_19"
    INDEX 01 00:19:04
  TRACK 20 AUDIO
    TITLE "2Q_t_0889-0900_20"
    INDEX 01 00:19:49
  TRACK 21 AUDIO
    TITLE "2Q_t_0889-0900_21"
    INDEX 01 00:20:66
  TRACK 22 AUDIO
    TITLE "2Q_t_0889-0900_22"
    INDEX 01 00:21:42
  TRACK 23 AUDIO
    TITLE "2Q_t_0889-0900_23"
    INDEX 01 00:23:13
  TRACK 24 AUDIO
    TITLE "2Q_t_0889-0900_24"
    INDEX 01 00:23:58
  TRACK 25 AUDIO
    TITLE "2Q_t_0889-0900_25"
    INDEX 01 00:25:14
  TRACK 26 AUDIO
    TITLE "2Q_t_0889-0900_26"
    INDEX 01 00:25:61
  TRACK 27 AUDIO
    TITLE "2Q_t_0889-0900_27"
    INDEX 01 00:28:13
  TRACK 28 AUDIO
    TITLE "2Q_t_0889-0900_28"
    INDEX 01 00:28:58
  TRACK 29 AUDIO
    TITLE "2Q_t_0889-0900_29"
    INDEX 01 00:30:02
  TRACK 30 AUDIO
    TITLE "2Q_t_0889-0900_30"
    INDEX 01 00:30:51
  TRACK 31 AUDIO
    TITLE "2Q_t_0889-0900_31"
    INDEX 01 00:31:66
  TRACK 32 AUDIO
    TITLE "2Q_t_0889-0900_32"
    INDEX 01 00:32:36
  TRACK 33 AUDIO
    TITLE "2Q_t_0889-0900_33"
    INDEX 01 00:33:61
  TRACK 34 AUDIO
    TITLE "2Q_t_0889-0900_34"
    INDEX 01 00:34:33
  TRACK 35 AUDIO
    TITLE "2Q_t_0889-0900_35"
    INDEX 01 00:36:69
  TRACK 36 AUDIO
    TITLE "2Q_t_0889-0900_36"
    INDEX 01 00:37:39
  TRACK 37 AUDIO
    TITLE "2Q_t_0889-0900_37"
    INDEX 01 00:38:54
  TRACK 38 AUDIO
    TITLE "2Q_t_0889-0900_38"
    INDEX 01 00:39:24
  TRACK 39 AUDIO
    TITLE "2Q_t_0889-0900_39"
    INDEX 01 00:41:70
  TRACK 40 AUDIO
    TITLE "2Q_t_0889-0900_40"
    INDEX 01 00:42:38
  TRACK 41 AUDIO
    TITLE "2Q_t_0889-0900_41"
    INDEX 01 00:43:47
  TRACK 42 AUDIO
    TITLE "2Q_t_0889-0900_42"
    INDEX 01 00:44:31
  TRACK 43 AUDIO
    TITLE "2Q_t_0889-0900_43"
    INDEX 01 00:45:56
  TRACK 44 AUDIO
    TITLE "2Q_t_0889-0900_44"
    INDEX 01 00:46:26
  TRACK 45 AUDIO
    TITLE "2Q_t_0889-0900_45"
    INDEX 01 00:47:53
  TRACK 46 AUDIO
    TITLE "2Q_t_0889-0900_46"
    INDEX 01 00:48:23
  TRACK 47 AUDIO
    TITLE "2Q_t_0889-0900_47"
    INDEX 01 00:50:49
  TRACK 48 AUDIO
    TITLE "2Q_t_0889-0900_48"
    INDEX 01 00:51:21
  TRACK 49 AUDIO
    TITLE "2Q_t_0889-0900_49"
    INDEX 01 00:52:27
  TRACK 50 AUDIO
    TITLE "2Q_t_0889-0900_50"
    INDEX 01 00:52:70
  TRACK 51 AUDIO
    TITLE "2Q_t_0889-0900_51"
    INDEX 01 00:54:28
  TRACK 52 AUDIO
    TITLE "2Q_t_0889-0900_52"
    INDEX 01 00:54:75
  TRACK 53 AUDIO
    TITLE "2Q_t_0889-0900_53"
    INDEX 01 00:56:17
